<mxfile host="app.diagrams.net" modified="2024-02-20T14:19:34.903Z" agent="Mozilla/5.0 (Windows NT 10.0; Win64; x64) AppleWebKit/537.36 (KHTML, like Gecko) Chrome/96.0.4664.110 Safari/537.36 OPR/82.0.4227.44" version="23.1.5" etag="LfdVQ1If--VNqb5NgcES" type="github">
  <diagram name="PÃ¡gina-1" id="pZl0TZ0iRRSm9jtHQo_r">
    <mxGraphModel>
      <root>
        <mxCell id="0" />
        <mxCell id="1" parent="0" />
      </root>
    </mxGraphModel>
  </diagram>
</mxfile>
